<?xml version="1.0" encoding="UTF-8"?>
<!--Generator: Apple Native CoreSVG 326-->
<!DOCTYPE svg
PUBLIC "-//W3C//DTD SVG 1.1//EN"
       "http://www.w3.org/Graphics/SVG/1.1/DTD/svg11.dtd">
<svg version="1.1" xmlns="http://www.w3.org/2000/svg" xmlns:xlink="http://www.w3.org/1999/xlink" viewBox="0 0 508.782 508.893">
 <g>
  <rect height="508.893" opacity="0" width="508.782" x="0" y="0"/>
  <path d="M254.285 508.571C394.546 508.571 508.782 394.335 508.782 254.285C508.782 114.236 394.546 0 254.285 0C114.236 0 0 114.236 0 254.285C0 394.335 114.236 508.571 254.285 508.571Z" fill="black" fill-opacity="0.125"/>
  <path d="M221.568 350.662C262.188 391.282 313.988 387.408 350.426 350.888C376.843 324.604 384.046 295.998 374.574 261.748C369.745 237.717 355.308 210.236 345.008 191.107C339.044 179.633 331.696 164.953 327.471 159.671C322.403 153.448 314.656 152.564 308.574 157.405C301.715 162.832 300.901 170.57 304.848 181.454L319.89 221.337C321.385 225.054 321.026 227.212 319.641 228.568C318.058 230.179 315.877 230.447 312.998 227.486L219.058 133.492C212.956 127.444 203.691 127.444 197.671 133.441C191.752 139.411 191.752 148.777 197.722 154.746L266.923 223.926C263.842 225.405 260.729 227.14 257.673 229.118L177.659 149.132C171.639 143.084 162.374 143.084 156.377 149.132C150.357 155.183 150.357 164.417 156.377 170.386L235.315 249.457C233.032 252.277 230.705 255.153 228.674 258.083L156.271 185.68C150.274 179.6 140.99 179.55 134.938 185.63C129.051 191.599 129.102 200.965 134.989 206.934L213.438 285.329C211.978 289.208 210.956 292.924 210.048 296.605L155.469 241.944C149.5 235.897 140.184 235.897 134.187 241.844C128.218 247.945 128.218 257.229 134.187 263.281Z" fill="black" fill-opacity="0.5"/>
 </g>
</svg>
