<svg width="500" height="500" viewBox="0 0 500 500" fill="none" xmlns="http://www.w3.org/2000/svg">
<path d="M183.192 442.065C264.201 523.056 367.505 515.332 440.174 442.516C492.857 390.109 507.222 333.072 488.332 264.782C478.702 216.868 449.91 162.074 429.369 123.934C417.475 101.056 402.821 71.786 394.395 61.2544C384.287 48.8465 368.838 47.084 356.708 56.7363C343.029 67.557 341.406 82.9855 349.277 104.687L379.276 184.208C382.257 191.619 381.541 195.922 378.779 198.626C375.622 201.838 371.273 202.372 365.531 196.468L178.186 9.05694C166.017 -3.00196 147.54 -3.00199 135.534 8.95523C123.73 20.8586 123.73 39.5332 135.636 51.4346L273.644 189.37C267.499 192.319 261.291 195.779 255.196 199.722L95.6243 40.241C83.6186 28.1821 65.1414 28.1821 53.1815 40.241C41.1758 52.3059 41.1758 70.7173 53.1815 82.6186L210.608 240.276C206.055 245.898 201.414 251.633 197.364 257.475L52.9701 113.113C41.0103 100.99 22.4952 100.89 10.4257 113.013C-1.31473 124.915 -1.21303 143.589 10.5274 155.49L166.978 311.8C164.067 319.534 162.029 326.943 160.218 334.283L51.3707 225.296C39.4667 213.239 20.8878 213.239 8.92799 225.096C-2.976 237.261 -2.976 255.772 8.92799 267.839L183.192 442.065Z" fill="white" fill-opacity="0.55"/>
</svg>
