<svg width="14" height="14" viewBox="0 0 14 14" fill="none" xmlns="http://www.w3.org/2000/svg">
<g clip-path="url(#clip0_155_349)">
<path d="M5.12938 12.3778C7.39762 14.6456 10.2902 14.4293 12.3249 12.3904C13.8 10.923 14.2022 9.32602 13.6733 7.4139C13.4036 6.07229 12.5975 4.53808 12.0223 3.47014C11.6893 2.82957 11.279 2.01001 11.043 1.71512C10.76 1.3677 10.3275 1.31835 9.98783 1.58862C9.60482 1.8916 9.55937 2.32359 9.77977 2.93123L10.6197 5.15783C10.7032 5.36534 10.6832 5.48582 10.6058 5.56152C10.5174 5.65146 10.3956 5.66642 10.2349 5.50112L4.98922 0.253594C4.64848 -0.084055 4.13112 -0.0840556 3.79496 0.250747C3.46444 0.584041 3.46444 1.10693 3.79781 1.44017L7.66202 5.30237C7.48998 5.38494 7.31615 5.4818 7.1455 5.59223L2.67748 1.12675C2.34132 0.789099 1.82396 0.789099 1.48908 1.12675C1.15292 1.46457 1.15292 1.98008 1.48908 2.31332L5.89702 6.72772C5.76953 6.88515 5.63959 7.04572 5.52618 7.20929L1.48316 3.16716C1.14829 2.82772 0.629867 2.82493 0.29192 3.16437C-0.0368124 3.49761 -0.0339648 4.02049 0.294768 4.35373L4.67539 8.73039C4.59387 8.94695 4.5368 9.15441 4.4861 9.35991L1.43838 6.30828C1.10507 5.97069 0.584859 5.97069 0.249984 6.3027C-0.0833279 6.64331 -0.0833279 7.16162 0.249984 7.49949L5.12938 12.3778Z" fill="black" fill-opacity="0.5"/>
</g>
<defs>
<clipPath id="clip0_155_349">
<rect width="14" height="14" fill="white"/>
</clipPath>
</defs>
</svg>
