<?xml version="1.0" encoding="UTF-8"?>
<!--Generator: Apple Native CoreSVG 326-->
<!DOCTYPE svg
PUBLIC "-//W3C//DTD SVG 1.1//EN"
       "http://www.w3.org/Graphics/SVG/1.1/DTD/svg11.dtd">
<svg version="1.1" xmlns="http://www.w3.org/2000/svg" xmlns:xlink="http://www.w3.org/1999/xlink" viewBox="0 0 501.377 501.564">
 <g>
  <rect height="501.564" opacity="0" width="501.377" x="0" y="0"/>
  <path d="M250.621 501.242C388.668 501.242 501.377 388.533 501.377 250.621C501.377 112.709 388.668 0 250.621 0C112.709 0 0 112.709 0 250.621C0 388.533 112.709 501.242 250.621 501.242Z" fill="black" fill-opacity="0.125"/>
  <path d="M302.33 215.332C304.339 215.332 305.825 214.026 306.197 212.112C311.806 179.456 316.638 173.52 349.362 168.737C351.496 168.44 352.747 166.868 352.747 164.97C352.747 162.895 351.496 161.353 349.362 161.087C316.967 156.414 311.35 150.074 306.197 117.948C305.765 115.813 304.339 114.406 302.33 114.406C300.295 114.406 298.754 115.813 298.467 117.872C292.862 150.226 287.821 156.354 255.272 161.087C253.092 161.353 251.787 162.895 251.787 164.97C251.787 166.868 253.092 168.335 255.272 168.737C287.522 173.88 293.048 179.251 298.467 212.037C298.708 214.026 300.174 215.332 302.33 215.332ZM155.053 316.179C156.962 316.179 158.178 314.888 158.444 313.084C161.678 290.418 161.768 288.372 186.695 284.893C188.554 284.596 189.76 283.296 189.76 281.577C189.76 279.753 188.584 278.482 186.695 278.186C161.708 274.492 161.708 272.45 158.444 249.965C158.178 248.161 156.932 246.87 155.053 246.87C153.249 246.87 152.034 248.161 151.737 249.995C148.589 272.51 148.499 274.642 123.606 278.186C121.627 278.482 120.451 279.723 120.451 281.577C120.451 283.296 121.627 284.566 123.486 284.893C148.559 288.612 148.619 290.598 151.737 313.084C152.034 314.888 153.249 316.179 155.053 316.179ZM197.938 353.952C199.189 353.952 200.145 353.072 200.411 351.69C202.683 337.957 202.395 336.652 218.62 333.587C220.002 333.29 220.777 332.319 220.777 331.088C220.777 329.781 220.032 328.805 218.65 328.539C202.471 325.473 202.834 324.319 200.411 310.33C200.145 309.099 199.114 308.143 197.938 308.143C196.555 308.143 195.731 309.099 195.389 310.481C192.874 324.319 193.389 325.7 177.23 328.539C175.843 328.835 174.938 329.705 174.938 331.088C174.938 332.319 175.843 333.29 177.17 333.587C193.389 336.652 192.874 337.957 195.389 351.66C195.731 353.072 196.555 353.952 197.938 353.952Z" fill="black" fill-opacity="0.5"/>
  <path d="M361.952 361.478C367.522 355.671 367.632 346.736 362.007 340.874L195.125 173.838C189.399 168.061 179.915 168.116 174.335 173.838C168.71 179.7 168.71 188.69 174.411 194.552L341.237 361.478C347.074 367.42 356.372 367.31 361.952 361.478ZM354.433 353.964C352.649 355.756 349.691 355.887 347.768 353.964L227.743 233.904L234.428 227.23L354.433 347.349C356.326 349.167 356.356 352.07 354.433 353.964Z" fill="black" fill-opacity="0.5"/>
 </g>
</svg>
