<svg width="500" height="500" viewBox="0 0 500 500" fill="none" xmlns="http://www.w3.org/2000/svg">
<path d="M361.85 200.755C365.847 200.755 368.804 198.157 369.544 194.35C380.703 129.393 390.316 117.586 455.421 108.072C459.666 107.481 462.155 104.354 462.155 100.578C462.155 96.451 459.666 93.3838 455.421 92.8547C390.971 83.5594 379.796 70.9483 369.544 7.0455C368.684 2.79871 365.847 0 361.85 0C357.802 0 354.736 2.79871 354.165 6.89434C343.014 71.2507 332.984 83.4401 268.228 92.8547C263.891 93.3838 261.294 96.451 261.294 100.578C261.294 104.354 263.891 107.272 268.228 108.072C332.39 118.302 343.384 128.985 354.165 194.201C354.644 198.157 357.561 200.755 361.85 200.755ZM68.841 401.353C72.639 401.353 75.0583 398.785 75.5875 395.197C82.0216 350.111 82.2006 346.041 131.793 339.121C135.492 338.53 137.891 335.944 137.891 332.525C137.891 328.897 135.551 326.369 131.793 325.78C82.0813 318.432 82.0812 314.37 75.5875 269.645C75.0583 266.056 72.5793 263.488 68.841 263.488C65.252 263.488 62.8347 266.056 62.2438 269.704C55.9809 314.49 55.8018 318.73 6.27692 325.78C2.33968 326.369 0 328.837 0 332.525C0 335.944 2.33967 338.471 6.03817 339.121C55.9212 346.519 56.0405 350.469 62.2438 395.197C62.8347 398.785 65.252 401.353 68.841 401.353ZM154.161 476.488C156.65 476.488 158.552 474.738 159.081 471.989C163.601 444.672 163.028 442.077 195.308 435.98C198.058 435.389 199.6 433.458 199.6 431.009C199.6 428.409 198.117 426.468 195.368 425.939C163.18 419.84 163.902 417.545 159.081 389.719C158.552 387.27 156.501 385.368 154.161 385.368C151.41 385.368 149.77 387.27 149.09 390.019C144.086 417.545 145.111 420.292 112.962 425.939C110.203 426.527 108.402 428.258 108.402 431.009C108.402 433.458 110.203 435.389 112.843 435.98C145.111 442.077 144.086 444.672 149.09 471.929C149.77 474.738 151.41 476.488 154.161 476.488Z" fill="white" fill-opacity="0.55"/>
<path d="M480.544 491.193C491.628 479.642 491.846 461.869 480.653 450.209L148.579 117.952C137.185 106.461 118.313 106.571 107.21 117.952C96.0169 129.613 96.0169 147.495 107.361 159.155L439.324 491.193C450.939 503.012 469.44 502.794 480.544 491.193ZM465.582 476.247C462.032 479.811 456.146 480.072 452.32 476.247L213.485 237.432L226.787 224.156L465.582 463.089C469.349 466.705 469.409 472.479 465.582 476.247Z" fill="white" fill-opacity="0.55"/>
</svg>
