<svg width="14" height="14" viewBox="0 0 14 14" fill="none" xmlns="http://www.w3.org/2000/svg">
<g clip-path="url(#clip0_156_379)">
<path d="M10.1318 5.62114C10.2437 5.62114 10.3265 5.5484 10.3472 5.4418C10.6597 3.623 10.9289 3.29239 12.7518 3.026C12.8707 3.00946 12.9404 2.92191 12.9404 2.8162C12.9404 2.70063 12.8707 2.61475 12.7518 2.59993C10.9472 2.33966 10.6343 1.98655 10.3472 0.197274C10.3232 0.0783638 10.2437 0 10.1318 0C10.0184 0 9.9326 0.078364 9.91661 0.193041C9.60438 1.99502 9.32356 2.33632 7.51038 2.59993C7.38894 2.61475 7.31624 2.70063 7.31624 2.8162C7.31624 2.92191 7.38894 3.00361 7.51038 3.026C9.30691 3.31244 9.61474 3.61159 9.91661 5.43763C9.93004 5.5484 10.0117 5.62114 10.1318 5.62114ZM1.92755 11.2379C2.03389 11.2379 2.10163 11.166 2.11645 11.0655C2.2966 9.80311 2.30162 9.68915 3.69021 9.49539C3.79377 9.47885 3.86095 9.40644 3.86095 9.3107C3.86095 9.20911 3.79544 9.13832 3.69021 9.12184C2.29828 8.9161 2.29827 8.80237 2.11645 7.55005C2.10163 7.44958 2.03222 7.37767 1.92755 7.37767C1.82705 7.37767 1.75937 7.44957 1.74283 7.55172C1.56746 8.80571 1.56245 8.92445 0.175754 9.12184C0.065511 9.13832 0 9.20744 0 9.3107C0 9.40644 0.0655108 9.47718 0.169069 9.49539C1.56579 9.70252 1.56914 9.81313 1.74283 11.0655C1.75937 11.166 1.82705 11.2379 1.92755 11.2379ZM4.31651 13.3417C4.3862 13.3417 4.43946 13.2927 4.45428 13.2157C4.58084 12.4508 4.5648 12.3781 5.46863 12.2074C5.54562 12.1909 5.58879 12.1368 5.58879 12.0683C5.58879 11.9955 5.54729 11.9411 5.4703 11.9263C4.56903 11.7555 4.58925 11.6912 4.45428 10.9121C4.43946 10.8436 4.38202 10.7903 4.31651 10.7903C4.23947 10.7903 4.19357 10.8436 4.17452 10.9205C4.03442 11.6912 4.06311 11.7682 3.16295 11.9263C3.08568 11.9428 3.03527 11.9912 3.03527 12.0683C3.03527 12.1368 3.08568 12.1909 3.15961 12.2074C4.06311 12.3781 4.03442 12.4508 4.17452 13.214C4.19357 13.2927 4.23947 13.3417 4.31651 13.3417Z" fill="black" fill-opacity="0.5"/>
<path d="M13.4555 13.7534C13.7658 13.43 13.7719 12.9323 13.4585 12.6059L4.16045 3.30267C3.84142 2.98091 3.313 2.98398 3.00211 3.30267C2.6887 3.62916 2.6887 4.12986 3.00634 4.45635L12.3013 13.7534C12.6265 14.0843 13.1446 14.0782 13.4555 13.7534ZM13.0365 13.3349C12.9371 13.4347 12.7723 13.442 12.6652 13.3349L5.97781 6.64809L6.35027 6.27637L13.0365 12.9665C13.142 13.0677 13.1437 13.2294 13.0365 13.3349Z" fill="black" fill-opacity="0.5"/>
</g>
<defs>
<clipPath id="clip0_156_379">
<rect width="14" height="14" fill="white"/>
</clipPath>
</defs>
</svg>
