<?xml version="1.0" encoding="UTF-8"?>
<!--Generator: Apple Native CoreSVG 326-->
<!DOCTYPE svg
PUBLIC "-//W3C//DTD SVG 1.1//EN"
       "http://www.w3.org/Graphics/SVG/1.1/DTD/svg11.dtd">
<svg version="1.1" xmlns="http://www.w3.org/2000/svg" xmlns:xlink="http://www.w3.org/1999/xlink" viewBox="0 0 501.377 501.564">
 <g>
  <rect height="501.564" opacity="0" width="501.377" x="0" y="0"/>
  <path d="M250.621 501.242C388.668 501.242 501.377 388.533 501.377 250.621C501.377 112.709 388.668 0 250.621 0C112.709 0 0 112.709 0 250.621C0 388.533 112.709 501.242 250.621 501.242Z" fill="black" fill-opacity="0.125"/>
  <path d="M126.656 250.701C126.656 258.43 131.19 264.089 140.028 265.756C156.83 268.558 163.89 276.604 163.89 297.113L163.89 331.388C163.89 367.358 179.577 383.416 214.894 383.416C217.158 383.416 219.302 383.099 221.079 382.647C226.692 381.195 229.366 377.391 229.366 372.556C229.366 367.385 226.961 364.332 222.036 363.218C220.83 362.947 219.694 362.736 218.277 362.6C197.639 361.494 189.621 352.049 189.621 328.607L189.621 287.75C189.621 265.798 176.266 253.262 155.581 251.544C154.564 251.484 154.504 250.222 155.581 250.132C176.266 248.444 189.621 235.907 189.621 213.955L189.621 173.007C189.621 149.565 197.639 140.272 218.277 139.165C219.951 139.03 221.465 138.789 222.625 138.396C227.087 137.176 229.366 134.048 229.366 129.058C229.366 124.268 226.766 120.629 221.286 119.163C219.193 118.545 216.944 118.274 214.214 118.274C179.501 118.274 163.89 134.407 163.89 170.377L163.89 204.593C163.89 225.055 156.74 233.072 140.028 235.874C131.19 237.571 126.656 243.154 126.656 250.701ZM374.728 250.701C374.728 243.154 370.27 237.571 361.377 235.874C344.719 232.987 337.439 225.055 337.439 204.593L337.439 170.377C337.439 134.407 321.828 118.274 287.17 118.274C284.385 118.274 282.136 118.545 280.098 119.163C274.543 120.629 271.963 124.268 271.963 129.058C271.963 134.048 274.393 137.071 278.759 138.396C279.995 138.819 281.378 139.03 283.052 139.165C303.67 140.029 311.839 149.565 311.839 173.007L311.839 213.955C311.839 235.983 325.193 249.622 345.879 250.162C346.881 250.222 346.821 251.484 345.879 251.544C325.193 252.143 311.839 265.722 311.839 287.75L311.839 328.607C311.839 352.049 303.745 361.434 283.052 362.6C281.71 362.736 280.499 362.947 279.349 363.218C274.529 364.301 271.963 367.385 271.963 372.556C271.963 377.542 274.768 381.376 280.38 382.647C282.082 383.099 284.246 383.416 286.49 383.416C321.752 383.416 337.439 367.358 337.439 331.388L337.439 297.113C337.439 276.604 344.629 268.613 361.377 265.756C370.27 264.089 374.728 258.43 374.728 250.701Z" fill="black" fill-opacity="0.5"/>
 </g>
</svg>
