<svg width="500" height="500" viewBox="0 0 500 500" fill="none" xmlns="http://www.w3.org/2000/svg">
<path d="M17.8574 249.728C17.8574 264.304 26.4107 274.975 43.0835 278.119C74.7802 283.403 88.0988 298.576 88.0988 337.251V401.887C88.0988 469.718 117.692 500 184.317 500C188.588 500 192.633 499.402 195.985 498.55C206.574 495.812 211.618 488.638 211.618 479.52C211.618 469.769 207.081 464.012 197.79 461.911C195.515 461.4 193.372 461.002 190.699 460.746C151.766 458.66 136.64 440.849 136.64 396.642V319.595C136.64 278.198 111.446 254.558 72.424 251.318C70.5054 251.205 70.3923 248.825 72.424 248.655C111.446 245.472 136.64 221.83 136.64 180.434V103.215C136.64 59.008 151.766 41.4834 190.699 39.3959C193.857 39.1413 196.713 38.6868 198.902 37.9457C207.319 35.645 211.618 29.7463 211.618 20.3363C211.618 11.3034 206.713 4.44102 196.376 1.67646C192.427 0.511047 188.184 0 183.034 0C117.549 0 88.0988 30.4233 88.0988 98.2549V162.779C88.0988 201.366 74.6104 216.484 43.0835 221.768C26.4107 224.968 17.8574 235.496 17.8574 249.728ZM485.842 249.728C485.842 235.496 477.432 224.968 460.655 221.768C429.23 216.324 415.496 201.366 415.496 162.779V98.2549C415.496 30.4233 386.047 0 320.665 0C315.411 0 311.168 0.511047 307.323 1.67646C296.844 4.44102 291.977 11.3034 291.977 20.3363C291.977 29.7463 296.561 35.447 304.797 37.9457C307.129 38.7434 309.738 39.1413 312.896 39.3959C351.792 41.0252 367.202 59.008 367.202 103.215V180.434C367.202 221.974 392.395 247.694 431.418 248.712C433.309 248.825 433.195 251.205 431.418 251.318C392.395 252.448 367.202 278.055 367.202 319.595V396.642C367.202 440.849 351.933 458.547 312.896 460.746C310.365 461.002 308.08 461.4 305.911 461.911C296.818 463.953 291.977 469.769 291.977 479.52C291.977 488.923 297.269 496.153 307.855 498.55C311.066 499.402 315.149 500 319.382 500C385.903 500 415.496 469.718 415.496 401.887V337.251C415.496 298.576 429.06 283.507 460.655 278.119C477.432 274.975 485.842 264.304 485.842 249.728Z" fill="black" fill-opacity="0.5"/>
</svg>
