<svg width="14" height="14" viewBox="0 0 14 14" fill="none" xmlns="http://www.w3.org/2000/svg">
<g clip-path="url(#clip0_155_353)">
<path d="M0.5 6.9924C0.5 7.4005 0.739493 7.69931 1.20633 7.78733C2.09384 7.93528 2.46676 8.36012 2.46676 9.44304V11.2528C2.46676 13.1521 3.29537 14 5.16087 14C5.28046 14 5.39371 13.9833 5.48757 13.9594C5.78406 13.8827 5.92531 13.6819 5.92531 13.4266C5.92531 13.1535 5.79827 12.9923 5.53812 12.9335C5.47442 12.9192 5.41441 12.9081 5.33957 12.9009C4.24943 12.8425 3.82591 12.3438 3.82591 11.106V8.94865C3.82591 7.78955 3.12048 7.12762 2.02786 7.03691C1.97414 7.03374 1.97098 6.96711 2.02786 6.96235C3.12048 6.87322 3.82591 6.21125 3.82591 5.05214V2.89001C3.82591 1.65222 4.24943 1.16154 5.33957 1.10308C5.42799 1.09596 5.50796 1.08323 5.56924 1.06248C5.80492 0.998061 5.92531 0.832897 5.92531 0.569416C5.92531 0.316494 5.78797 0.124348 5.49851 0.0469409C5.38795 0.0143093 5.26916 0 5.12495 0C3.29136 0 2.46676 0.851853 2.46676 2.75114V4.55781C2.46676 5.63824 2.08908 6.06155 1.20633 6.2095C0.739493 6.29911 0.5 6.5939 0.5 6.9924ZM13.6036 6.9924C13.6036 6.5939 13.3681 6.29911 12.8983 6.2095C12.0184 6.05706 11.6339 5.63824 11.6339 4.55781V2.75114C11.6339 0.851853 10.8093 0 8.9786 0C8.8315 0 8.7127 0.0143093 8.60505 0.0469409C8.31163 0.124348 8.17535 0.316494 8.17535 0.569416C8.17535 0.832897 8.3037 0.992517 8.53432 1.06248C8.59961 1.08481 8.67266 1.09596 8.76108 1.10308C9.85016 1.1487 10.2817 1.65222 10.2817 2.89001V5.05214C10.2817 6.21526 10.987 6.93542 12.0797 6.96394C12.1326 6.96711 12.1295 7.03374 12.0797 7.03691C10.987 7.06854 10.2817 7.78553 10.2817 8.94865V11.106C10.2817 12.3438 9.85412 12.8393 8.76108 12.9009C8.6902 12.9081 8.62623 12.9192 8.56549 12.9335C8.31089 12.9907 8.17535 13.1535 8.17535 13.4266C8.17535 13.6898 8.32351 13.8923 8.61995 13.9594C8.70985 13.9833 8.82415 14 8.94268 14C10.8053 14 11.6339 13.1521 11.6339 11.2528V9.44304C11.6339 8.36012 12.0137 7.93819 12.8983 7.78733C13.3681 7.69931 13.6036 7.4005 13.6036 6.9924Z" fill="black" fill-opacity="0.5"/>
</g>
<defs>
<clipPath id="clip0_155_353">
<rect width="14" height="14" fill="white"/>
</clipPath>
</defs>
</svg>
