<svg width="14" height="12" viewBox="0 0 14 12" fill="none" xmlns="http://www.w3.org/2000/svg">
<g clip-path="url(#clip0_156_390)">
<path d="M8.61081 4.21997C8.61081 5.20487 8.26665 6.1073 7.68635 6.82362L8.65553 7.77491C8.54201 7.79024 8.41723 7.80587 8.28092 7.82298C7.9623 7.86575 7.70677 8.05546 7.5816 8.31536L6.861 7.60749C6.14621 8.13041 5.26731 8.43783 4.30892 8.43783C1.93277 8.43783 0 6.54839 0 4.21997C0 1.89392 1.93277 0 4.30892 0C6.68266 0 8.61081 1.89392 8.61081 4.21997ZM0.797499 4.21997C0.797499 6.11571 2.36974 7.66086 4.30892 7.66086C6.24109 7.66086 7.81793 6.11571 7.81793 4.21997C7.81793 2.32212 6.24109 0.781456 4.30892 0.781456C2.36974 0.781456 0.797499 2.32212 0.797499 4.21997Z" fill="black" fill-opacity="0.275"/>
<path d="M11.0852 11.5309C11.1966 11.5309 11.2777 11.4582 11.2985 11.356C11.6507 9.44135 11.7995 9.14968 13.8005 8.8908C13.9163 8.87491 13.9974 8.7955 13.9974 8.68646C13.9974 8.5798 13.9163 8.50038 13.8005 8.4845C11.7995 8.2256 11.5842 7.9159 11.2985 6.02829C11.2823 5.92163 11.1966 5.83984 11.0852 5.83984C10.9737 5.83984 10.895 5.91712 10.8742 6.02379C10.5242 7.93845 10.3708 8.2256 8.36988 8.4845C8.24939 8.50038 8.17536 8.5798 8.17536 8.68646C8.17536 8.7955 8.24939 8.87491 8.36988 8.8908C10.3663 9.14968 10.5815 9.44136 10.8742 11.3515C10.8904 11.4582 10.9645 11.5309 11.0852 11.5309ZM8.60362 12.6135C8.68488 12.6135 8.75431 12.5545 8.77052 12.4748C8.93063 11.581 8.87787 11.5196 9.88972 11.3781C9.978 11.3622 10.0334 11.2918 10.0334 11.2169C10.0334 11.1351 9.978 11.0692 9.88972 11.0534C8.87787 10.8984 8.93063 10.8393 8.77052 9.96566C8.75431 9.877 8.68948 9.81798 8.60362 9.81798C8.51314 9.81798 8.4575 9.87252 8.43672 9.96566C8.27199 10.8393 8.32719 10.8984 7.31992 11.0534C7.22704 11.0692 7.17383 11.1351 7.17383 11.2169C7.17383 11.3008 7.22704 11.3622 7.32672 11.3781C8.32719 11.5196 8.27199 11.581 8.43672 12.4613C8.4575 12.5499 8.50854 12.6135 8.60362 12.6135Z" fill="black" fill-opacity="0.5"/>
</g>
<defs>
<clipPath id="clip0_156_390">
<rect width="14" height="12" fill="white"/>
</clipPath>
</defs>
</svg>
