<svg width="500" height="437" viewBox="0 0 500 437" fill="none" xmlns="http://www.w3.org/2000/svg">
<g clip-path="url(#clip0_156_415)">
<path d="M307.529 153.677C307.529 189.544 295.238 222.407 274.513 248.494L309.126 283.136C305.072 283.695 300.615 284.264 295.747 284.887C284.368 286.444 275.242 293.353 270.771 302.818L245.036 277.039C219.507 296.083 188.118 307.278 153.89 307.278C69.0276 307.278 0 238.47 0 153.677C0 68.9704 69.0276 0 153.89 0C238.666 0 307.529 68.9704 307.529 153.677ZM28.4821 153.677C28.4821 222.714 84.6337 278.983 153.89 278.983C222.896 278.983 279.212 222.714 279.212 153.677C279.212 84.5638 222.896 28.458 153.89 28.458C84.6337 28.458 28.4821 84.5638 28.4821 153.677Z" fill="white" fill-opacity="0.275"/>
<path d="M395.914 419.918C399.895 419.918 402.789 417.269 403.533 413.548C416.113 343.823 421.425 333.201 492.888 323.774C497.026 323.195 499.921 320.303 499.921 316.332C499.921 312.448 497.026 309.556 492.888 308.977C421.425 299.549 413.736 288.271 403.533 219.531C402.954 215.646 399.895 212.668 395.914 212.668C391.931 212.668 389.122 215.482 388.38 219.367C375.878 289.092 370.402 299.549 298.939 308.977C294.636 309.556 291.992 312.448 291.992 316.332C291.992 320.303 294.636 323.195 298.939 323.774C370.238 333.201 377.927 343.823 388.38 413.384C388.959 417.269 391.603 419.918 395.914 419.918ZM307.287 459.341C310.189 459.341 312.668 457.192 313.248 454.291C318.966 421.741 317.081 419.505 353.219 414.353C356.372 413.775 358.351 411.211 358.351 408.483C358.351 405.505 356.372 403.105 353.219 402.527C317.081 396.884 318.966 394.733 313.248 362.917C312.668 359.688 310.353 357.538 307.287 357.538C304.055 357.538 302.068 359.525 301.326 362.917C295.443 394.733 297.414 396.884 261.44 402.527C258.123 403.105 256.223 405.505 256.223 408.483C256.223 411.539 258.123 413.775 261.683 414.353C297.414 419.505 295.443 421.741 301.326 453.799C302.068 457.028 303.891 459.341 307.287 459.341Z" fill="white" fill-opacity="0.55"/>
</g>
<defs>
<clipPath id="clip0_156_415">
<rect width="500" height="437" fill="white"/>
</clipPath>
</defs>
</svg>
