<?xml version="1.0" encoding="UTF-8"?>
<!--Generator: Apple Native CoreSVG 326-->
<!DOCTYPE svg
PUBLIC "-//W3C//DTD SVG 1.1//EN"
       "http://www.w3.org/Graphics/SVG/1.1/DTD/svg11.dtd">
<svg version="1.1" xmlns="http://www.w3.org/2000/svg" xmlns:xlink="http://www.w3.org/1999/xlink" viewBox="0 0 858.412 750.991">
 <g>
  <rect height="750.991" opacity="0" width="858.412" x="0" y="0"/>
  <path d="M580.263 326.679C580.263 372.801 564.47 415.061 537.841 448.606L582.315 493.154C577.106 493.872 571.38 494.604 565.125 495.405C550.504 497.408 538.778 506.292 533.034 518.463L499.967 485.314C467.166 509.802 426.835 524.198 382.856 524.198C273.818 524.198 185.126 435.717 185.126 326.679C185.126 217.752 273.818 129.061 382.856 129.061C491.783 129.061 580.263 217.752 580.263 326.679ZM221.722 326.679C221.722 415.455 293.87 487.813 382.856 487.813C471.52 487.813 543.879 415.455 543.879 326.679C543.879 237.804 471.52 165.656 382.856 165.656C293.87 165.656 221.722 237.804 221.722 326.679Z" fill="white" fill-opacity="0.275"/>
  <path d="M693.878 669.076C698.993 669.076 702.712 665.669 703.668 660.884C719.831 571.223 726.657 557.564 818.478 545.441C823.795 544.697 827.514 540.978 827.514 535.872C827.514 530.877 823.795 527.158 818.478 526.414C726.657 514.29 716.777 499.787 703.668 411.392C702.924 406.397 698.993 402.567 693.878 402.567C688.761 402.567 685.152 406.186 684.198 411.181C668.134 500.843 661.098 514.29 569.277 526.414C563.748 527.158 560.351 530.877 560.351 535.872C560.351 540.978 563.748 544.697 569.277 545.441C660.888 557.564 670.767 571.223 684.198 660.673C684.942 665.669 688.339 669.076 693.878 669.076ZM580.003 719.771C583.732 719.771 586.918 717.007 587.662 713.277C595.009 671.42 592.588 668.544 639.02 661.919C643.071 661.176 645.614 657.879 645.614 654.371C645.614 650.541 643.071 647.456 639.02 646.712C592.588 639.455 595.009 636.689 587.662 595.776C586.918 591.624 583.943 588.86 580.003 588.86C575.851 588.86 573.298 591.414 572.344 595.776C564.785 636.689 567.318 639.455 521.096 646.712C516.834 647.456 514.392 650.541 514.392 654.371C514.392 658.301 516.834 661.176 521.408 661.919C567.318 668.544 564.785 671.42 572.344 712.644C573.298 716.796 575.64 719.771 580.003 719.771Z" fill="white" fill-opacity="0.55"/>
 </g>
</svg>
