<?xml version="1.0" encoding="UTF-8"?>
<!--Generator: Apple Native CoreSVG 326-->
<!DOCTYPE svg
PUBLIC "-//W3C//DTD SVG 1.1//EN"
       "http://www.w3.org/Graphics/SVG/1.1/DTD/svg11.dtd">
<svg version="1.1" xmlns="http://www.w3.org/2000/svg" xmlns:xlink="http://www.w3.org/1999/xlink" viewBox="0 0 508.789 509.18">
 <g>
  <rect height="509.18" opacity="0" width="508.789" x="0" y="0"/>
  <path d="M254.297 509.18C394.531 509.18 508.789 394.922 508.789 254.688C508.789 114.648 394.531 0.390625 254.297 0.390625C114.258 0.390625 0 114.648 0 254.688C0 394.922 114.258 509.18 254.297 509.18Z" fill="white" fill-opacity="0.1375"/>
  <path d="M135.742 391.602L114.258 369.922C102.344 358.008 103.32 345.508 116.797 333.594L258.594 209.375L297.461 247.852L172.07 389.258C160.547 402.539 147.656 403.32 135.742 391.602ZM371.875 278.32L361.719 268.75C356.445 263.867 355.664 260.156 356.25 253.711L357.422 240.039L346.68 229.102L326.367 233.203C318.164 234.766 312.5 233.789 307.227 228.32L277.344 198.438C270.312 191.406 268.359 183.594 272.461 172.852L282.812 146.484C263.477 134.18 240.82 135.156 215.039 141.992C210.547 143.75 205.859 141.992 202.734 139.258C199.023 134.766 198.242 128.125 204.297 122.07C241.211 85.1562 308.008 89.0625 344.727 125.586L372.266 152.93C381.641 161.914 384.57 170.703 382.422 179.883L378.125 197.656L389.062 208.398L402.734 207.031C409.375 206.445 412.109 207.227 417.773 212.695L427.93 222.656C432.812 227.93 433.008 233.984 428.125 238.672L387.891 278.711C382.617 283.594 376.953 283.203 371.875 278.32Z" fill="white" fill-opacity="0.55"/>
 </g>
</svg>
