<svg width="500" height="500" viewBox="0 0 500 500" fill="none" xmlns="http://www.w3.org/2000/svg">
<path d="M45.7153 469.717L12.7371 436.463C-5.55101 418.189 -4.05285 399.016 16.6345 380.742L234.294 190.211L293.956 249.228L101.479 466.121C83.7912 486.492 64.0034 487.69 45.7153 469.717ZM408.182 295.961L392.592 281.282C384.497 273.793 383.298 268.101 384.198 258.215L385.997 237.244L369.507 220.469L338.327 226.759C325.735 229.157 317.041 227.658 308.947 219.27L263.076 173.436C252.282 162.65 249.284 150.667 255.58 134.191L271.469 93.7468C241.79 74.8745 207.011 76.3716 167.437 86.8568C160.542 89.5533 153.346 86.8568 148.549 82.6633C142.852 75.7733 141.653 65.5872 150.948 56.2998C207.611 -0.319757 310.145 5.67185 366.51 61.6928L408.782 103.634C423.173 117.414 427.669 130.895 424.372 144.975L417.776 172.236L434.564 188.712L455.551 186.616C465.745 185.717 469.942 186.916 478.636 195.303L494.227 210.582C501.721 218.671 502.022 227.957 494.526 235.148L432.767 296.561C424.671 304.051 415.977 303.451 408.182 295.961Z" fill="black" fill-opacity="0.5"/>
</svg>
