<svg width="14" height="14" viewBox="0 0 14 14" fill="none" xmlns="http://www.w3.org/2000/svg">
<path d="M1.28003 12.6472L0.356639 11.719C-0.155428 11.2089 -0.11348 10.6736 0.465766 10.1635L6.56024 4.84493L8.23076 6.49238L2.84142 12.5469C2.34615 13.1155 1.7921 13.1489 1.28003 12.6472ZM11.4291 7.79691L10.9926 7.38715C10.7659 7.17808 10.7323 7.01919 10.7575 6.74324L10.8079 6.15785L10.3462 5.68957L9.47315 5.86516C9.12058 5.93208 8.87714 5.89025 8.65051 5.65609L7.36613 4.37665C7.06389 4.07557 6.97995 3.74109 7.15625 3.28115L7.60114 2.15217C6.77012 1.62536 5.79631 1.66715 4.68824 1.95984C4.49517 2.03511 4.29368 1.95984 4.15936 1.84278C3.99986 1.65045 3.9663 1.36611 4.22654 1.10685C5.81312 -0.473661 8.68407 -0.306407 10.2623 1.2574L11.4459 2.42816C11.8488 2.81283 11.9747 3.18914 11.8824 3.58219L11.6977 4.34317L12.1678 4.8031L12.7554 4.74457C13.0409 4.71948 13.1584 4.75296 13.4018 4.98708L13.8384 5.41358C14.0482 5.63939 14.0566 5.8986 13.8467 6.09932L12.1175 7.81365C11.8908 8.02272 11.6474 8.00598 11.4291 7.79691Z" fill="black" fill-opacity="0.5"/>
</svg>
